<?xml version="1.0" encoding="UTF-8"?>
<!DOCTYPE svg PUBLIC "-//W3C//DTD SVG 1.1//EN" "http://www.w3.org/Graphics/SVG/1.1/DTD/svg11.dtd">
<!-- Creator: CorelDRAW 2018 (64 Bit) -->
<svg xmlns="http://www.w3.org/2000/svg" xml:space="preserve" width="297mm" height="297mm" version="1.1" style="shape-rendering:geometricPrecision; text-rendering:geometricPrecision; image-rendering:optimizeQuality; fill-rule:evenodd; clip-rule:evenodd"
viewBox="0 0 29700 29700"
 xmlns:xlink="http://www.w3.org/1999/xlink">
 <defs>
  <style type="text/css">
   <![CDATA[
    .fil0 {fill:none}
    .fil20 {fill:#FEFEFE}
    .fil3 {fill:#E6E7E8}
    .fil18 {fill:#D2D3D5}
    .fil17 {fill:#A9ABAE}
    .fil4 {fill:#FCD3C2}
    .fil1 {fill:#FFCC29}
    .fil13 {fill:#FFCC29}
    .fil2 {fill:#ED3237}
    .fil7 {fill:#ED3237}
    .fil10 {fill:#E8B9A5}
    .fil21 {fill:#DFB3A2}
    .fil8 {fill:#C83538}
    .fil15 {fill:#91D8F7}
    .fil5 {fill:#A8CF45}
    .fil6 {fill:#91B64A}
    .fil16 {fill:#74C1E1}
    .fil22 {fill:#00AFEF}
    .fil23 {fill:#0098DA}
    .fil24 {fill:#201E1E}
    .fil26 {fill:#201E1E}
    .fil11 {fill:black}
    .fil14 {fill:#0062BD}
    .fil19 {fill:#D6A38D}
    .fil9 {fill:#C83538;fill-rule:nonzero}
    .fil12 {fill:black;fill-rule:nonzero}
    .fil25 {fill:#B07D68;fill-rule:nonzero}
    .fil27 {fill:#DB9F1C;fill-rule:nonzero}
   ]]>
  </style>
 </defs>
 <g id="Camada_x0020_2">
  <metadata id="CorelCorpID_0Corel-Layer"/>
  <rect class="fil0" width="29700" height="29700"/>
  <g id="_2308779141968">
   <path class="fil1" d="M18243.93 11251.86c103.08,44.18 2709.38,780.42 3843.19,1825.88 1133.81,1045.47 1030.75,1766.99 824.59,1766.99 -206.15,0 -721.51,-765.68 -957.11,-544.82 -235.6,220.87 412.31,986.57 -427.02,2473.78 -839.32,1487.21 -3916.83,2193.99 -5153.71,1870.05 -1236.87,-323.94 1870.06,-7391.88 1870.06,-7391.88z"/>
   <path class="fil1" d="M11327.57 10731.62c0,0 -979.37,1696.95 -2002.28,1740.48 -1022.9,43.53 -2502.83,718.21 -3025.17,1588.76 -522.33,870.55 282.94,2589.91 1109.96,2698.72 827.02,108.82 304.45,-928.96 980.48,-1331.7 676.03,-402.75 827.06,93.49 726.37,532.18 -100.68,438.7 -388.37,1222.6 294.86,1948.97 683.23,726.38 2900.88,2188.39 5138.59,1185.28 2237.72,-1003.12 -2443.49,-8153.54 -2443.49,-8153.54l-779.32 -209.15z"/>
   <path class="fil2" d="M12717.98 15662.24c0,0 -913.88,690.36 -2996.48,1570.63 -1393.64,589.05 -3485.62,319.3 -4254.93,200.11 -402.34,-62.31 -340.38,-104.23 -148.37,382.3 1159.82,2938.67 4797.21,5023.69 7399.78,5325.14 4678.37,541.89 6322.13,-596.08 8092.33,-1770.19 1770.2,-1174.11 2456.6,-3323.64 2366.28,-3829.41 -90.32,-505.76 -379.33,289.02 -1354.74,289.02 -975.42,0 -2402.41,-776.74 -3576.52,-2005.03 -1174.11,-1228.29 -5527.35,-162.57 -5527.35,-162.57z"/>
   <path class="fil3" d="M18641.78 10943.49c0,0 -26.25,-1903.04 524.98,-3228.62 551.23,-1325.58 2323.04,-1968.69 2611.77,-1758.69 288.73,210 -13.12,1128.71 -236.24,1561.82 -223.12,433.11 -446.23,774.34 -446.23,774.34 0,0 853.08,-944.95 1483.06,-1207.45 629.97,-262.49 538.11,406.85 183.75,1128.7 -354.36,721.86 -892.48,1364.96 -1299.33,1758.69 -406.86,393.73 -485.61,419.98 -485.61,419.98 0,0 839.97,-656.22 1194.33,-446.23 354.36,209.99 -52.49,1364.93 -853.09,1824.29 -800.59,459.37 -826.84,433.11 -826.84,433.11 0,0 676.32,-198.1 796.37,84.38 120.04,282.49 -233.05,769.75 -642.63,995.73 -409.59,225.97 -692.06,261.29 -692.06,261.29 0,0 593.18,7.06 536.69,346.03 -56.49,338.96 -451.94,444.9 -649.68,437.83 -197.74,-7.06 -296.6,-21.18 -296.6,-21.18 0,0 444.9,310.71 402.52,642.62 -42.38,331.91 -437.84,487.26 -896.85,240.11 -459.02,-247.16 -755.62,-1009.85 -755.62,-1009.85l347.31 -3236.9z"/>
   <path class="fil4" d="M16822.15 15779.66c33.25,-99.72 1080.33,-2459.82 1711.91,-4171.73 631.58,-1711.91 598.34,-1728.55 814.4,-1894.74 216.07,-166.2 1196.68,-332.41 2094.18,332.41 897.51,664.82 -16.62,2177.29 -531.86,3407.2 -515.23,1229.91 -1678.66,2642.64 -2493.06,3407.19 -814.41,764.54 -1030.47,332.4 -1296.4,-33.25 -265.92,-365.64 -299.17,-1047.08 -299.17,-1047.08z"/>
   <path class="fil5" d="M17797.2 11161.55c-12.84,40.6 -31.15,79.08 -56.8,114.52 -625.2,863.67 -4182.59,-1794.44 -3597.41,-2667.34l556.32 -1003.57 3590.98 2695.32 -493.09 861.07z"/>
   <path class="fil6" d="M14693.89 7626.57c656.09,-851.06 4231,1793.6 3583.57,2687.98 -630.13,870.49 -4239.67,-1836.91 -3583.57,-2687.98z"/>
   <path class="fil5" d="M15063.23 7466.72c602.61,-781.7 3886.15,1647.4 3291.48,2468.89 -578.77,799.54 -3894.11,-1687.19 -3291.48,-2468.89z"/>
   <path class="fil6" d="M15746.17 7744.64c374.45,-485.72 2414.74,1023.65 2045.24,1534.1 -359.64,496.81 -2419.69,-1048.37 -2045.24,-1534.1z"/>
   <path class="fil5" d="M15503.57 6716.15c602.62,-781.7 3886.15,1647.41 3291.49,2468.9 -578.78,799.53 -3894.11,-1687.2 -3291.49,-2468.9z"/>
   <path class="fil4" d="M21553.58 9808.58c0,0 288.79,-376.31 708.85,-271.29 420.05,105.02 358.8,542.59 131.26,638.84 -227.53,96.26 -840.11,96.27 -910.12,0 -70.01,-96.26 70.01,-367.55 70.01,-367.55z"/>
   <path class="fil7" d="M17357.49 8398.59l5358.91 3300.45c571.01,422.25 1128.64,-708.49 587.74,-958.15 -163.83,-75.62 -5278.69,-3035.47 -5278.69,-3035.47l-667.96 693.17z"/>
   <ellipse class="fil8" transform="matrix(0.885452 0.515824 -0.515824 0.885452 23129.3 11303.8)" rx="295.82" ry="484.86"/>
   <path class="fil9" d="M23266.56 11181.5c-21.54,16.45 -52.34,12.32 -68.78,-9.22 -16.45,-21.54 -12.32,-52.35 9.22,-68.79 1.51,-1.15 521.91,-407 1343.43,-189.54 300.21,79.47 475.81,294.13 538.4,535.23 28.81,110.94 33.53,227.43 15.31,338.75 -18.32,111.95 -59.75,218.92 -123.1,310.07 -126.67,182.22 -339.41,301.63 -628.79,273.73 -860.5,-82.94 -1300.83,-863.88 -1302.12,-866.12 -13.47,-23.45 -5.4,-53.39 18.05,-66.86 23.45,-13.47 53.39,-5.39 66.86,18.06 1.21,2.11 416.9,739.29 1226.43,817.31 249.09,24.01 431.23,-77.35 538.88,-232.22 54.99,-79.11 91,-172.17 106.95,-269.73 16.07,-98.21 11.96,-200.85 -13.38,-298.4 -54.33,-209.29 -207.09,-395.73 -468.47,-464.91 -774.72,-205.06 -1257.49,171.57 -1258.89,172.64z"/>
   <path class="fil6" d="M16186.52 6994.08c374.45,-485.73 2414.74,1023.65 2045.23,1534.1 -359.63,496.8 -2419.68,-1048.38 -2045.23,-1534.1z"/>
   <path class="fil5" d="M15966.83 6027.98c602.62,-781.7 3886.15,1647.4 3291.49,2468.89 -578.78,799.54 -3894.11,-1687.19 -3291.49,-2468.89z"/>
   <path class="fil6" d="M16649.78 6305.9c374.45,-485.73 2414.74,1023.65 2045.23,1534.1 -359.63,496.8 -2419.68,-1048.38 -2045.23,-1534.1z"/>
   <path class="fil5" d="M16407.18 5277.41c602.61,-781.7 3886.15,1647.41 3291.48,2468.89 -578.77,799.54 -3894.11,-1687.19 -3291.48,-2468.89z"/>
   <path class="fil6" d="M17090.12 5555.33c374.45,-485.72 2414.74,1023.65 2045.24,1534.1 -359.63,496.81 -2419.69,-1048.37 -2045.24,-1534.1z"/>
   <path class="fil6" d="M20696.38 7156.6c-14.51,45.9 -35.21,89.39 -64.2,129.44 -706.68,976.23 -4727.69,-2028.3 -4066.25,-3014.96l628.83 -1134.36 4058.97 3046.59 -557.35 973.29z"/>
   <path class="fil5" d="M17188.64 3160.93c741.59,-961.98 4782.4,2027.34 4050.59,3038.29 -712.25,983.93 -4792.2,-2076.31 -4050.59,-3038.29z"/>
   <path class="fil10" d="M7314.67 20278.36c0,0 -425.39,676.25 -332.68,883.5 92.71,207.24 283.59,234.51 370.85,114.53 87.26,-119.98 278.13,-430.84 452.65,-643.54 174.53,-212.69 207.25,-289.04 207.25,-289.04l-698.07 -65.45z"/>
   <path class="fil4" d="M11576.45 16351.62c0,0 -2520.33,1735.02 -3168.69,2447.3 -648.36,712.28 -867.52,876.63 -794.47,1424.54 73.06,547.91 538.78,885.78 885.78,812.73 347.01,-73.05 1926.79,-949.7 3013.46,-1378.89 1086.68,-429.19 1424.55,-502.24 1424.55,-502.24 0,0 -54.78,-3260.02 -273.94,-3296.55 -219.17,-36.53 -1086.69,493.11 -1086.69,493.11z"/>
   <path class="fil2" d="M9519.18 17846.56c-470.11,363.01 -895.04,714.64 -1111.42,952.36 -97.9,107.55 -185.94,202.53 -264.74,288.3 235.13,730.41 749.89,1336.98 1056.36,1651.35 432.18,-207.91 991.42,-490.43 1529.89,-740.39 -464.16,-572.8 -876.18,-1269.49 -1210.09,-2151.62z"/>
   <path class="fil11" d="M8947.14 18303.42c-154.51,128.88 -291.75,249.44 -402.33,355.81 134.46,266.2 440.66,829.5 879.48,1383.09 132.51,167.17 247.12,304.77 345.29,417.77 139.98,-68.71 285.07,-139.81 432.22,-211.1 -283.15,-336.7 -709.9,-880.24 -981.74,-1395 -128.17,-242.69 -214.65,-420.46 -272.92,-550.57z"/>
   <path class="fil11" d="M12464.38 18487.23c-415.69,-934.11 -968.17,-1731.45 -1673.42,-2375.99 607.46,-230.51 1272.14,-477.65 1896.6,-452.67l-223.18 2828.66z"/>
   <path class="fil12" d="M17434.05 21266.41c2.74,22.78 21.15,94.52 41.29,173.11 27.37,106.77 57.95,226.09 57.95,257.43 0,551.51 -276.9,1093.36 -738.21,1488.96 -433.57,371.81 -1030.16,614.51 -1712.73,614.51 -703.62,0 -1340.82,-216.52 -1802.2,-566.54 -462.28,-350.72 -748.22,-835.5 -748.22,-1371.18l0 -10.64c0.02,-81.82 -0.02,-251.53 10.96,-322.96 16.86,-110.77 86.92,-315.55 119.49,-433.67l-366.76 -4401.27 1.55 -0.01 -0.67 -22.75c-0.29,-12.76 -0.46,-24.47 -0.46,-34.78 0,-602.55 312.29,-1147.91 817.18,-1542.51 504.08,-393.96 1200.3,-637.65 1969.12,-637.65 768.8,0 1465.01,243.69 1969.09,637.65 504.89,394.6 817.18,939.96 817.18,1542.51 0,54.21 -2.6,108.25 -7.68,162.02 -5.11,54.2 -12.77,107.81 -22.8,160.74l-404.08 4307.03zm18.86 178.82c-20.69,-80.76 -39.59,-154.4 -42.03,-177.4 -21.7,-199.7 340.09,-4009.16 404.41,-4312.34 9.96,-52.49 17.54,-105.54 22.59,-159.04 4.95,-52.46 7.49,-105.77 7.49,-159.83 0,-595.08 -308.86,-1134.01 -808.18,-1524.27 -500.13,-390.87 -1191.29,-632.65 -1954.85,-632.65 -763.58,0 -1454.75,241.78 -1954.88,632.65 -499.32,390.26 -808.18,929.19 -808.18,1524.27 0,12.79 0.14,24.11 0.37,34.32l1.6 46.07 -0.43 0 365.04 4380.45 -120.08 435.58c-10.73,70.52 -10.67,238.12 -10.66,319.02l0.05 10.64c0,528.07 282.41,1006.37 738.97,1352.75 457.47,347.05 1089.69,561.73 1788.21,561.73 676.76,0 1268.07,-240.47 1697.67,-608.88 456.2,-391.21 730.04,-926.66 730.04,-1471.35 0,-28.81 -30.16,-146.46 -57.15,-251.72z"/>
   <path class="fil11" d="M17470.6 21467.65c25.3,98.9 51.07,201.59 51.07,229.3 0,1063.76 -1037.2,2091.85 -2439.32,2091.85 -1402.15,0 -2538.8,-862.34 -2538.8,-1926.1 0,-76.4 -0.58,-257.79 10.82,-331.88l52.82 -191.58c381.24,170.37 1348.71,464.7 2925.14,418.34 939.58,-27.63 1551.98,-158.27 1938.27,-289.93z"/>
   <path class="fil13" d="M17422.41 21266.61c3.96,37.2 53.46,215.76 81.02,332.98 -734.25,246.19 -1554.9,384.09 -2421.1,384.09 -909.91,0 -1769.53,-152.18 -2531.54,-422.2 1.03,-11.5 2.22,-21.85 3.58,-30.66l119.75 -434.37 -365.9 -4390.85 0.97 -0.01c-0.91,-22.92 -1.53,-45.88 -1.53,-68.97 0,-1197.65 1242.26,-2168.54 2774.68,-2168.54 1532.39,0 2774.65,970.89 2774.65,2168.54 0,109.09 -10.42,216.24 -30.31,321.01l-404.27 4308.98z"/>
   <path class="fil12" d="M17434.05 21266.41c2.74,22.78 21.13,94.48 41.26,172.99 13.97,54.53 28.81,112.37 39.43,157.55l2.4 10.25 -10.04 3.37c-373,125.06 -768.28,222.25 -1180.46,287.63 -400.61,63.55 -817.03,97.1 -1244.31,97.1 -448.68,0 -885.3,-36.98 -1304.12,-106.83 -431.46,-71.96 -843.98,-178.82 -1231.28,-316.06l-8.46 -3.01 2.45 -25.57c17.15,-125.96 85.66,-318.53 121.46,-448.4l-366.76 -4401.27 1.55 -0.01 -0.67 -22.75c-0.29,-12.76 -0.46,-24.47 -0.46,-34.78 0,-602.55 312.29,-1147.91 817.18,-1542.51 504.08,-393.96 1200.3,-637.65 1969.12,-637.65 768.8,0 1465.01,243.69 1969.09,637.65 504.89,394.6 817.18,939.96 817.18,1542.51 0,54.21 -2.6,108.25 -7.68,162.02 -5.11,54.2 -12.77,107.81 -22.8,160.74l-404.08 4307.03zm18.84 178.71c-20.7,-80.71 -39.57,-154.29 -42.01,-177.29 -21.7,-199.7 340.09,-4009.16 404.41,-4312.34 9.96,-52.49 17.54,-105.54 22.59,-159.04 4.95,-52.46 7.49,-105.77 7.49,-159.83 0,-595.08 -308.86,-1134.01 -808.18,-1524.27 -500.13,-390.87 -1191.29,-632.65 -1954.85,-632.65 -763.58,0 -1454.75,241.78 -1954.88,632.65 -499.32,390.26 -808.18,929.19 -808.18,1524.27 0,12.79 0.14,24.11 0.37,34.32l1.6 46.07 -0.43 0 365.04 4380.45 -120.18 435.92 -2.5 20.17c383.61,135.36 791.94,240.85 1218.84,312.06 417.36,69.6 852.69,106.45 1300.31,106.45 426.41,0 841.61,-33.43 1240.68,-96.73 407.19,-64.59 797.83,-160.31 1166.69,-283.36 -10.99,-46.16 -24.26,-97.86 -36.81,-146.85z"/>
   <path class="fil11" d="M17712.06 18103.73c0,0 581.11,-2780.33 598.99,-3289.92 17.88,-509.59 8.93,-473.82 8.93,-473.82 0,0 -822.47,974.46 -840.36,1081.74 -17.88,107.28 143.04,71.52 187.74,822.48 44.7,750.96 44.7,1859.52 44.7,1859.52z"/>
   <path class="fil11" d="M12650.82 21180.97l23.3 -84.52 -365.9 -4390.85 0.97 -0.01c-0.91,-22.92 -1.53,-45.88 -1.53,-68.97 0,-1197.65 1242.26,-2168.54 2774.68,-2168.54 1532.39,0 2774.65,970.89 2774.65,2168.54 0,109.09 -10.42,216.24 -30.31,321.01l-398.91 4251.82c-714.79,230.54 -1508.92,359.06 -2345.44,359.06 -870.29,0 -1694.62,-139.17 -2431.51,-387.54z"/>
   <path class="fil3" d="M11475.07 10943.49c0,0 26.25,-1903.04 -524.98,-3228.62 -551.23,-1325.58 -2323.04,-1968.69 -2611.77,-1758.69 -288.74,210 13.12,1128.71 236.24,1561.82 223.11,433.11 446.23,774.34 446.23,774.34 0,0 -853.08,-944.95 -1483.06,-1207.45 -629.97,-262.49 -538.11,406.85 -183.75,1128.7 354.36,721.86 892.47,1364.96 1299.33,1758.69 406.86,393.73 485.61,419.98 485.61,419.98 0,0 -839.97,-656.22 -1194.33,-446.23 -354.36,209.99 52.49,1364.93 853.08,1824.29 800.6,459.37 826.85,433.11 826.85,433.11 0,0 -676.33,-198.1 -796.37,84.38 -120.04,282.49 233.04,769.75 642.63,995.73 409.59,225.97 692.06,261.29 692.06,261.29 0,0 -593.19,7.06 -536.69,346.03 56.49,338.96 451.94,444.9 649.68,437.83 197.74,-7.06 296.6,-21.18 296.6,-21.18 0,0 -444.9,310.71 -402.52,642.62 42.37,331.91 437.83,487.26 896.85,240.11 459.02,-247.16 755.62,-1009.85 755.62,-1009.85l-347.31 -3236.9z"/>
   <path class="fil14" d="M14415.58 23724.23c-524.7,-882.4 -1163.83,-1523.23 -1890.03,-1980.22 0,0 -576.95,903.99 -952.07,1932.23 -409.06,1121.29 -620.23,2376.89 -646.07,2428.57 -49.54,99.1 -929.16,445.99 -904.37,792.87 24.78,346.88 1049.73,302.37 1808.74,185.83 589.88,-90.56 619.95,-334.51 593.82,-412.89 -86.23,-138.48 1931.36,-3005.03 1989.98,-2946.39z"/>
   <path class="fil14" d="M15629.93 23724.23c524.71,-882.4 1163.84,-1523.23 1890.04,-1980.22 0,0 576.94,903.99 952.07,1932.23 409.05,1121.29 620.23,2376.89 646.07,2428.57 49.53,99.1 929.15,445.99 904.37,792.87 -24.79,346.88 -1049.73,302.37 -1808.75,185.83 -589.87,-90.56 -619.94,-334.51 -593.81,-412.89 86.23,-138.48 -1924.74,-2877.04 -1989.99,-2946.39z"/>
   <path class="fil11" d="M11198.32 24915.13c-165.41,650.29 -254.69,1157.24 -270.91,1189.68 -49.54,99.1 -929.16,445.99 -904.37,792.87 24.78,346.88 1049.73,302.37 1808.74,185.83 589.88,-90.56 619.95,-334.51 593.82,-412.89 -34.59,-55.55 269.41,-550.13 649.62,-1118.71 -328.19,-194.42 -710.22,-360.33 -1129.28,-480.8 -253.57,-72.9 -504.48,-124.44 -747.62,-155.98z"/>
   <path class="fil11" d="M18847.2 24915.13c165.4,650.29 254.69,1157.24 270.91,1189.68 49.53,99.1 929.15,445.99 904.37,792.87 -24.79,346.88 -1049.73,302.37 -1808.75,185.83 -589.87,-90.56 -619.94,-334.51 -593.81,-412.89 34.59,-55.55 -269.41,-550.13 -649.63,-1118.71 328.2,-194.42 710.22,-360.33 1129.28,-480.8 253.58,-72.9 504.49,-124.44 747.63,-155.98z"/>
   <path class="fil13" d="M11105.62 25296.5c-19.43,83.58 -37.27,162.72 -53.53,236.42 162.51,-23.59 429.9,-9.45 844.85,126.35 408.73,133.76 670.47,298.9 829.3,429.25 53.91,-86.04 113.15,-178.5 176.25,-275.23 -176.26,-155.97 -518.47,-375.46 -927.36,-496.11 -406.35,-119.9 -683.27,-80.88 -869.51,-20.68zm-99.19 447.45c-20.6,97.1 -37.28,177.89 -50.07,238.37 225.25,17.03 795,85.94 1111.62,356.23 161.27,137.67 276.61,235.76 356.9,303.83 12.47,-59.86 84.48,-196.45 194.3,-379.56 -93.24,-111.78 -278.96,-252.13 -648.93,-373.87 -450.62,-148.26 -774.96,-159.9 -963.82,-145zm-87.55 372.46c-29.29,32 -116.4,82 -225.63,144.89 169.19,10.54 462.45,58.91 715,253.18 240.12,184.7 429.78,408.16 537.3,548.27 174.99,-37.4 289.46,-89.95 363.06,-145.18 -76.26,-148.77 -284.82,-409.13 -656.01,-569.25 -316.83,-136.67 -582.31,-202.25 -733.72,-231.91zm-466.86 288.96c-64.57,41.1 -128.49,84.81 -186.51,130.4 67.62,1.29 153.08,19.77 258.21,71.56 218.53,107.63 480.58,380.69 630.72,550.43 147.3,-9.19 297.61,-23.79 443.31,-41.83 -41.83,-88.38 -139.4,-220.46 -365.43,-381.54 -304.7,-217.14 -604.37,-296.24 -780.3,-329.02z"/>
   <path class="fil13" d="M18939.9 25296.5c19.43,83.58 37.26,162.72 53.53,236.42 -162.51,-23.59 -429.9,-9.45 -844.86,126.35 -408.73,133.76 -670.47,298.9 -829.3,429.25 -53.9,-86.04 -113.15,-178.5 -176.24,-275.23 176.26,-155.97 518.46,-375.46 927.35,-496.11 406.35,-119.9 683.28,-80.88 869.52,-20.68zm99.18 447.45c20.6,97.1 37.29,177.89 50.07,238.37 -225.24,17.03 -795,85.94 -1111.62,356.23 -161.27,137.67 -276.6,235.76 -356.89,303.83 -12.47,-59.86 -84.49,-196.45 -194.3,-379.56 93.23,-111.78 278.96,-252.13 648.92,-373.87 450.62,-148.26 774.97,-159.9 963.82,-145zm87.56 372.46c29.29,32 116.4,82 225.62,144.89 -169.19,10.54 -462.44,58.91 -714.99,253.18 -240.12,184.7 -429.79,408.16 -537.3,548.27 -174.99,-37.4 -289.47,-89.95 -363.07,-145.18 76.26,-148.77 284.82,-409.13 656.02,-569.25 316.83,-136.67 582.3,-202.25 733.72,-231.91zm466.86 288.96c64.57,41.1 128.49,84.81 186.5,130.4 -67.61,1.29 -153.07,19.77 -258.21,71.56 -218.53,107.63 -480.57,380.69 -630.72,550.43 -147.3,-9.19 -297.61,-23.79 -443.31,-41.83 41.83,-88.38 139.4,-220.46 365.44,-381.54 304.7,-217.14 604.37,-296.24 780.3,-329.02z"/>
   <path class="fil11" d="M11113.66 25250.36c-4.92,-34.41 -226.09,-353.88 -29.49,-825.72 196.6,-471.85 1307.41,-1105.89 1440.11,-1032.17 132.71,73.73 29.49,491.51 176.95,810.99 147.45,319.48 452.17,634.03 501.32,1012.49 49.15,378.46 -304.72,599.64 -304.72,599.64 0,0 -638.96,-599.65 -1135.38,-688.11 -496.42,-88.46 -648.79,122.88 -648.79,122.88z"/>
   <path class="fil12" d="M11102.18 25251.99c-0.44,-3.13 -5.17,-13.09 -12.28,-28.05 -46.4,-97.65 -187.21,-393.93 -16.45,-803.75 8.22,-19.73 18.08,-39.87 29.44,-60.29 128.74,-231.75 446.87,-491.63 750.47,-686.03 305.21,-195.43 597.95,-324.6 671.86,-293.81l4.69 2.29c71.9,39.95 79.46,165.67 88.89,322.77 9.14,152.59 20.14,335.73 92.95,493.48 51.52,111.62 122.47,222.85 194.91,336.41 134.97,211.59 275.16,431.36 307.37,679.49 50.1,385.82 -308.92,610.2 -309.94,610.85l-7.55 4.86 -6.61 -6.14c-1.84,-1.71 -636.5,-597.31 -1129.48,-685.16 -489.36,-87.19 -637.1,117.81 -637.53,118.39l-16.77 22.37 -3.97 -27.68zm8.68 -37.95l6.76 14.38c46.7,-47.53 224.62,-187.6 646.83,-112.37 470.82,83.89 1065.59,621.32 1134.57,684.85 50.14,-34.04 336.1,-244.25 292.05,-583.5 -31.54,-242.94 -170.32,-460.5 -303.93,-669.96 -72.95,-114.36 -144.4,-226.36 -196.44,-339.13 -74.63,-161.7 -85.78,-347.23 -95.05,-501.82 -8.99,-150.04 -16.22,-270.13 -76.99,-303.9l-2.34 -1.1c-67.51,-28.12 -350.99,100.17 -650.44,291.9 -301.03,192.75 -616.09,449.76 -742.75,677.76 -10.81,19.44 -20.28,38.79 -28.25,57.94 -166.8,400.32 -29.33,689.6 15.98,784.95z"/>
   <path class="fil11" d="M18931.86 25250.36c4.91,-34.41 226.09,-353.88 29.49,-825.72 -196.6,-471.85 -1307.41,-1105.89 -1440.12,-1032.17 -132.7,73.73 -29.49,491.51 -176.94,810.99 -147.45,319.48 -452.17,634.03 -501.32,1012.49 -49.16,378.46 304.72,599.64 304.72,599.64 0,0 638.96,-599.65 1135.38,-688.11 496.42,-88.46 648.79,122.88 648.79,122.88z"/>
   <path class="fil12" d="M18927.9 25228.42l6.76 -14.38c45.3,-95.35 182.77,-384.63 15.97,-784.95 -7.97,-19.15 -17.44,-38.5 -28.24,-57.94 -126.67,-228 -441.72,-485.01 -742.76,-677.76 -299.45,-191.73 -582.93,-320.02 -650.44,-291.9l-2.33 1.1c-60.77,33.77 -68,153.86 -76.99,303.9 -9.28,154.59 -20.42,340.12 -95.05,501.82 -52.05,112.77 -123.49,224.77 -196.44,339.13 -133.62,209.46 -272.4,427.02 -303.93,669.96 -44.05,339.25 241.9,549.46 292.04,583.5 68.99,-63.53 663.76,-600.96 1134.58,-684.85 422.21,-75.23 600.13,64.84 646.83,112.37zm27.72 -4.48c-7.11,14.96 -11.84,24.92 -12.28,28.05l-3.98 27.68 -16.76 -22.37c-0.43,-0.58 -148.18,-205.58 -637.53,-118.39 -492.99,87.85 -1127.64,683.45 -1129.48,685.16l-6.61 6.14 -7.56 -4.86c-1.02,-0.65 -360.04,-225.03 -309.93,-610.85 32.2,-248.13 172.39,-467.9 307.37,-679.49 72.43,-113.56 143.38,-224.79 194.9,-336.41 72.81,-157.75 83.82,-340.89 92.96,-493.48 9.42,-157.1 16.99,-282.82 88.89,-322.77l4.59 -2.24c74,-30.84 366.75,98.33 671.96,293.76 303.59,194.4 621.72,454.28 750.47,686.03 11.35,20.42 21.22,40.56 29.43,60.29 170.76,409.82 29.96,706.1 -16.44,803.75z"/>
   <circle class="fil15" cx="13840.67" cy="17701.82" r="1076.32"/>
   <path class="fil16" d="M14889.22 17945.74c-110.5,476.94 -538.01,832.4 -1048.55,832.4 -474.6,0 -877.42,-307.18 -1020.57,-733.56 80.76,-504.35 517.81,-889.72 1044.92,-889.72 492.09,0 905.72,335.87 1024.2,790.88z"/>
   <path class="fil4" d="M7947.29 20731.01c0,0 -179.97,725.36 -98.17,965.31 81.81,239.96 414.48,212.7 507.2,92.71 92.71,-119.98 229.05,-927.12 229.05,-927.12l-638.08 -130.9z"/>
   <path class="fil4" d="M7783.68 20561.95c0,0 -414.49,5.45 -812.6,65.44 -398.11,59.99 -458.1,0.01 -610.8,-130.88 -152.71,-130.89 -130.9,-234.52 81.8,-381.76 212.69,-147.24 1047.11,-359.94 1199.81,-479.92 152.7,-119.99 234.51,-185.43 234.51,-185.43l-92.72 1112.55z"/>
   <circle class="fil15" cx="16316.58" cy="17701.82" r="1076.32"/>
   <path class="fil16" d="M17375.37 17896.04c-91.44,501.72 -530.67,882.1 -1058.79,882.1 -488.28,0 -900.55,-325.18 -1032.25,-770.76 49.99,-537.99 502.62,-959.19 1053.67,-959.19 512.43,0 939.77,364.2 1037.37,847.85z"/>
   <circle class="fil15" cx="16316.58" cy="19988.8" r="668.12"/>
   <path class="fil16" d="M16950.17 20201.35c-88.79,264.8 -338.91,455.58 -633.59,455.58 -294.69,0 -544.81,-190.78 -633.59,-455.58 88.78,-264.8 338.9,-455.58 633.59,-455.58 294.68,0 544.8,190.78 633.59,455.58z"/>
   <circle class="fil15" cx="13900.34" cy="19988.8" r="668.12"/>
   <path class="fil16" d="M14533.93 20201.35c-88.79,264.8 -338.91,455.58 -633.59,455.58 -294.68,0 -544.81,-190.78 -633.59,-455.58 88.78,-264.8 338.91,-455.58 633.59,-455.58 294.68,0 544.8,190.78 633.59,455.58z"/>
   <circle class="fil15" cx="14222.08" cy="22528.27" r="376.81"/>
   <path class="fil16" d="M14578.18 22651.73c-51.12,147.46 -191.24,253.35 -356.1,253.35 -164.85,0 -304.97,-105.89 -356.09,-253.35 51.12,-147.47 191.24,-253.36 356.09,-253.36 164.86,0 304.98,105.89 356.1,253.36z"/>
   <circle class="fil15" cx="15842.28" cy="22528.27" r="376.81"/>
   <path class="fil16" d="M16198.37 22651.73c-51.11,147.46 -191.23,253.35 -356.09,253.35 -164.86,0 -304.98,-105.89 -356.09,-253.35 51.11,-147.47 191.23,-253.36 356.09,-253.36 164.86,0 304.98,105.89 356.09,253.36z"/>
   <path class="fil2" d="M18255.65 12338.25c98.12,-250.58 192.15,-496.51 278.41,-730.32 187.52,-508.27 316.43,-867.11 410.66,-1124.78 118.41,27.24 257.26,63.51 420.36,110.93 1007.1,292.76 1898.63,725.77 2337.53,956.07 -181.92,611.65 -536,1291.96 -791.83,1902.65 -31.03,74.1 -64.47,148.85 -100.01,224.09 -142.85,-134.13 -324.08,-285.42 -548.18,-440.16 -488.27,-337.13 -1464.3,-706.73 -2006.94,-898.48z"/>
   <path class="fil11" d="M18571.47 11506.42c88.32,-239.99 162.87,-444.67 226.5,-619.76 472.71,155.33 2075.58,885.71 2720.55,1182.19 -106.74,266.13 -230.38,537.55 -351.46,804.27 -117.03,-71.33 -249.07,-151.11 -398.51,-240.59 -962.46,-576.32 -1825.51,-966.8 -2197.08,-1126.11z"/>
   <path class="fil17" d="M19245.17 11881.02c0,0 37.88,220.34 -82.07,326.09 -119.95,105.75 -555.56,74.91 -555.56,74.91l-31.55 -484.72 347.21 -127.79 321.97 211.51z"/>
   <path class="fil17" d="M11024.12 11868.09c0,0 -53.13,128.22 69.6,190.5 122.72,62.28 291.25,91.6 301.19,91.6l-65.83 -409.98 -250.12 71.46 -54.84 56.42z"/>
   <circle class="fil18" cx="15044.56" cy="8762.27" r="700.95"/>
   <ellipse class="fil4" transform="matrix(0.708439 0.106491 -0 0.689784 11092.7 13738.5)" rx="790.91" ry="897.91"/>
   <ellipse class="fil4" transform="matrix(-0.708439 0.106491 -0 0.689784 19164.2 13738.5)" rx="790.91" ry="897.91"/>
   <path class="fil19" d="M11510.16 14214.36c-102.59,111.19 -251.61,168.48 -417.48,143.55 -309.45,-46.52 -560.31,-361.52 -560.31,-703.59 0,-10.7 0.25,-21.31 0.73,-31.81 24.07,-65.63 71.65,-119.53 158.88,-133.52 236.96,-38.02 534.42,134.32 549.55,249.51 15.12,115.18 -65.55,269.96 45.38,370.08 47.96,43.3 131.76,88.29 223.25,105.78z"/>
   <path class="fil19" d="M18746.73 14214.36c102.59,111.19 251.61,168.48 417.48,143.55 309.45,-46.52 560.31,-361.52 560.31,-703.59 0,-10.7 -0.25,-21.31 -0.73,-31.81 -24.07,-65.63 -71.65,-119.53 -158.88,-133.52 -236.97,-38.02 -534.43,134.32 -549.55,249.51 -15.13,115.18 65.54,269.96 -45.38,370.08 -47.97,43.3 -131.76,88.29 -223.25,105.78z"/>
   <path class="fil20" d="M11510.16 14214.36c-54.59,59.16 -122.32,103.05 -198.74,127.43 -483.46,6.59 -503.6,-508.78 -342.14,-614.77 107.03,-70.26 204.78,-44.38 265.14,-13.14 3.63,8.41 6.06,16.66 7.11,24.62 15.12,115.18 -65.55,269.96 45.38,370.08 47.96,43.3 131.76,88.29 223.25,105.78z"/>
   <path class="fil12" d="M11518.68 14222.21c-28.08,30.43 -59.6,56.97 -93.91,78.97 -33.95,21.76 -70.78,39.18 -109.86,51.65l-1.63 0.52 -1.73 0.02c-136.97,1.86 -237.86,-37.42 -308.61,-97.51 -59.81,-50.79 -98,-116.38 -118.21,-184.55 -20.15,-67.96 -22.43,-138.6 -10.52,-199.72 13.34,-68.4 44.6,-125.33 88.71,-154.28 47.68,-31.26 93.76,-44.29 135.78,-46.35 56.25,-2.79 105.08,14 141.03,32.61l3.73 1.93 1.63 3.79c2.01,4.67 3.73,9.38 5.06,14.05 1.29,4.59 2.28,9.19 2.86,13.66 5.17,39.39 -0.34,82.42 -5.97,126.35 -10.88,84.91 -22.24,173.54 47.63,236.61 24.56,22.17 58.92,44.86 99.02,63.86 35.95,17.04 76.49,31.1 118.65,39.15l20.49 3.93 -14.15 15.31zm-106.43 59.45c26.94,-17.28 52.09,-37.51 75.08,-60.33 -36.7,-8.72 -71.84,-21.52 -103.54,-36.55 -42.23,-19.99 -78.56,-44.02 -104.65,-67.57 -78.85,-71.17 -66.69,-165.97 -55.06,-256.76 5.44,-42.44 10.76,-83.95 5.97,-120.45 -0.43,-3.34 -1.18,-6.8 -2.18,-10.27l-2.57 -7.48c-32.72,-16.35 -76.12,-30.6 -125.5,-28.15 -38.28,1.88 -80.38,13.84 -124.17,42.59 -38.74,25.48 -66.48,76.92 -78.64,139.3 -11.25,57.72 -9.09,124.51 9.98,188.79 19,64.1 54.87,125.73 110.95,173.37 66.54,56.5 161.82,93.53 291.64,92.09 36.36,-11.76 70.79,-28.14 102.69,-48.58z"/>
   <path class="fil20" d="M18746.73 14214.36c54.59,59.16 122.32,103.05 198.74,127.43 483.46,6.59 503.59,-508.78 342.14,-614.77 -107.03,-70.26 -204.79,-44.38 -265.14,-13.14 -3.63,8.41 -6.06,16.66 -7.11,24.62 -15.13,115.18 65.54,269.96 -45.38,370.08 -47.97,43.3 -131.76,88.29 -223.25,105.78z"/>
   <path class="fil12" d="M18769.56 14221.33c22.99,22.82 48.14,43.05 75.08,60.33 31.9,20.44 66.33,36.82 102.68,48.58 129.83,1.44 225.11,-35.59 291.64,-92.09 56.09,-47.64 91.96,-109.27 110.96,-173.37 19.06,-64.28 21.23,-131.07 9.99,-188.79 -12.18,-62.38 -39.91,-113.82 -78.65,-139.26 -43.8,-28.79 -85.89,-40.75 -124.17,-42.63 -49.38,-2.45 -92.78,11.8 -125.5,28.15 -0.99,2.53 -1.84,5 -2.52,7.43 -1.05,3.52 -1.8,6.98 -2.23,10.32 -4.79,36.5 0.53,78.01 5.97,120.45 11.63,90.79 23.78,185.59 -55.07,256.76 -26.08,23.55 -62.42,47.58 -104.64,67.57 -31.7,15.03 -66.84,27.83 -103.54,36.55zm62.56 79.85c-34.32,-22 -65.83,-48.54 -93.91,-78.97l-14.16 -15.31 20.5 -3.93c42.16,-8.05 82.7,-22.11 118.65,-39.15 40.1,-19 74.46,-41.69 99.02,-63.86 69.87,-63.07 58.5,-151.7 47.63,-236.61 -5.64,-43.93 -11.15,-86.96 -5.97,-126.35 0.58,-4.47 1.56,-9.07 2.89,-13.65 1.3,-4.68 3.02,-9.39 5.03,-14.06l1.63 -3.79 3.73 -1.93c35.95,-18.61 84.77,-35.4 141.02,-32.61 42.03,2.06 88.1,15.09 135.77,46.38 44.13,28.92 75.38,85.85 88.72,154.22 11.91,61.15 9.64,131.79 -10.51,199.75 -20.21,68.17 -58.4,133.76 -118.21,184.55 -70.75,60.09 -171.64,99.37 -308.61,97.51l-1.74 -0.02 -1.62 -0.52c-39.08,-12.47 -75.91,-29.89 -109.86,-51.65z"/>
   <path class="fil4" d="M14889.82 8964.68l489.08 0c4674.82,0 4674.82,7499.24 0,7499.24l-489.08 0c-4674.83,0 -4674.83,-7499.24 0,-7499.24z"/>
   <path class="fil21" d="M18787.59 11789.05c10.7,50.31 20.41,100.83 29.35,151.56 -82.29,63.3 -201.23,146.45 -317.78,198.25 -208.61,92.71 -873.04,270.41 -1838.78,-100.44 -965.75,-370.85 -1552.93,-1043.01 -1552.93,-1043.01l417.2 0c0,0 1197.53,131.34 1869.69,285.86 509.18,117.05 1124.66,384.8 1393.25,507.78z"/>
   <path class="fil21" d="M11424.1 12119.1c21.13,-157.76 50.3,-314.09 88.35,-467.81l2068.87 -692.1 1761.53 23.65c0,0 -679.89,970.47 -2047.39,1301.85 -890.74,215.84 -1532.25,6.56 -1871.36,-165.59z"/>
   <path class="fil3" d="M19115.33 11522.11c26.96,106.63 50.07,214.46 69.6,323.09 -2290.73,-1176.42 -5809.9,-1176.33 -8100.99,0.65 17.12,-95.31 36.78,-190.07 59.63,-283.88 974.25,-4000.76 6967.32,-4012.55 7971.76,-39.86z"/>
   <path class="fil20" d="M12310.05 12568.47c0,0 8.39,-92.27 666.99,230.73 658.59,323 1485.78,779.93 1568.88,960.62 251.41,546.7 -863.26,1061.31 -1668.18,576.12 -596.35,-359.45 -649.17,-1132.95 -567.69,-1767.47z"/>
   <path class="fil3" d="M12310.05 12568.47c0,0 8.39,-92.27 666.99,230.73 658.59,323 1485.78,779.93 1568.88,960.62 56.65,123.17 43.77,244.66 -19.1,353.52 -5.63,-32.18 -15.63,-64.66 -30.62,-97.26 -83.1,-180.7 -910.29,-637.62 -1568.88,-960.62 -440.2,-215.89 -589.89,-246.26 -640.78,-242.65 5.18,-82.9 13.29,-164.72 23.51,-244.34z"/>
   <path class="fil20" d="M17965.53 12568.47c0,0 -8.39,-92.27 -666.99,230.73 -658.59,323 -1485.78,779.93 -1568.88,960.62 -251.41,546.7 863.26,1061.31 1668.19,576.12 596.34,-359.45 649.17,-1132.95 567.68,-1767.47z"/>
   <path class="fil3" d="M17965.53 12568.47c0,0 -8.39,-92.27 -666.99,230.73 -658.59,323 -1485.78,779.93 -1568.88,960.62 -69.05,150.16 -34.88,297.85 67.45,423.11 -8.93,-66.71 0.81,-135.94 32.89,-205.72 83.1,-180.69 910.28,-637.62 1568.88,-960.62 339.2,-166.36 505.93,-222.55 587.86,-237.93 -5.15,-71.23 -12.39,-141.52 -21.21,-210.19z"/>
   <path class="fil22" d="M13466.26 13048.45c522.62,276.6 1016.44,573.91 1079.66,711.37 15.86,34.49 26.25,68.85 31.65,102.84 -91.77,297.43 -368.85,513.58 -696.41,513.58 -402.46,0 -728.71,-326.25 -728.71,-728.71 0,-248.27 124.2,-467.51 313.81,-599.08z"/>
   <path class="fil15" d="M14173.55 14315.17c-89.51,39.26 -188.4,61.07 -292.39,61.07 -299.92,0 -557.48,-181.2 -669.27,-440.08 55.95,-193.23 324.73,-287.77 602.81,-211.23 279.66,76.97 462.76,297.81 408.95,493.31 -9.85,35.8 -27,68.24 -50.1,96.93z"/>
   <path class="fil23" d="M13466.26 13048.45c522.62,276.6 1016.44,573.91 1079.66,711.37 15.86,34.49 26.25,68.85 31.65,102.84 -18.25,59.16 -43.87,115.11 -75.73,166.78 -1.87,-4.45 -3.58,-8.9 -5.64,-13.36 -68.66,-149.29 -645.21,-487.11 -1214.97,-782.2 50.01,-72.38 112.75,-135.28 185.03,-185.43z"/>
   <path class="fil22" d="M16809.33 13048.45c-522.63,276.6 -1016.45,573.91 -1079.67,711.37 -15.86,34.49 -26.25,68.85 -31.65,102.84 91.77,297.43 368.85,513.58 696.42,513.58 402.45,0 728.71,-326.25 728.71,-728.71 0,-248.27 -124.21,-467.51 -313.81,-599.08z"/>
   <path class="fil15" d="M16126.75 14325.46c82.87,32.75 173.16,50.78 267.68,50.78 314.63,0 582.68,-199.42 684.69,-478.74 -99.59,-145.06 -343.36,-195.84 -585.33,-111.32 -273.86,95.65 -441.65,328.35 -374.79,519.76 2.32,6.65 4.94,13.14 7.75,19.52z"/>
   <path class="fil23" d="M16809.33 13048.45c-522.63,276.6 -1016.45,573.91 -1079.67,711.37 -15.86,34.49 -26.25,68.85 -31.65,102.84 23.09,74.84 57.92,144.52 102.33,206.93 5.79,-30.57 15.42,-61.42 29.66,-92.38 66.37,-144.3 607.28,-464.78 1157.91,-752.53 -48.92,-68.52 -109.39,-128.22 -178.58,-176.23z"/>
   <path class="fil24" d="M13874.28 13272.86c126.34,72.61 243.12,143.24 342.91,208.62 24.78,50.04 38.73,106.42 38.73,166.05 0,206.98 -167.79,374.77 -374.76,374.77 -206.98,0 -374.77,-167.79 -374.77,-374.77 0,-204.68 164.08,-371 367.89,-374.67z"/>
   <path class="fil24" d="M16401.31 13272.86c-126.34,72.61 -243.13,143.24 -342.92,208.62 -24.77,50.04 -38.73,106.42 -38.73,166.05 0,206.98 167.79,374.77 374.77,374.77 206.98,0 374.76,-167.79 374.76,-374.77 0,-204.68 -164.08,-371 -367.88,-374.67z"/>
   <path class="fil25" d="M12120.63 12616.55c-10.19,3.65 -21.41,-1.65 -25.06,-11.84 -3.65,-10.19 1.65,-21.41 11.84,-25.06 24.16,-8.72 57.33,-17.38 90.46,-24.03 32.52,-6.53 65.34,-11.2 89.91,-12.15 10.82,-0.39 19.91,8.08 20.3,18.9 0.38,10.82 -8.09,19.92 -18.91,20.3 -22.49,0.87 -53.04,5.25 -83.61,11.39 -31.35,6.28 -62.51,14.41 -84.93,22.49z"/>
   <path class="fil25" d="M18168.17 12579.65c10.19,3.65 15.49,14.87 11.84,25.06 -3.64,10.19 -14.87,15.49 -25.06,11.84 -22.41,-8.08 -53.58,-16.21 -84.93,-22.49 -30.57,-6.14 -61.11,-10.52 -83.61,-11.39 -10.82,-0.38 -19.29,-9.48 -18.91,-20.3 0.39,-10.82 9.49,-19.29 20.3,-18.9 24.57,0.95 57.39,5.62 89.92,12.15 33.12,6.65 66.3,15.31 90.45,24.03z"/>
   <circle class="fil20" cx="13451.92" cy="13436.38" r="225.87"/>
   <circle class="fil20" cx="16823.66" cy="13436.38" r="225.87"/>
   <circle class="fil20" cx="14040.28" cy="13851.36" r="105.78"/>
   <circle class="fil20" cx="16235.3" cy="13851.36" r="105.78"/>
   <path class="fil26" d="M11953.02 12361.62c442.25,-38.79 842.25,13.95 1181.85,197.56 327.57,177.12 537.02,481.35 825.81,722.44 612.31,511.14 925.53,472.78 1083.88,149.93 -437.07,-53.98 -850.57,-225.68 -1227.6,-580.02 -613.77,-563.72 -1235.17,-722.05 -1863.94,-489.91z"/>
   <path class="fil26" d="M18152.02 12285.53c-443.95,0.73 -837.67,88.87 -1159.58,301.96 -310.51,205.58 -492.04,527.24 -758.23,793.08 -564.39,563.62 -879.78,553.28 -1066.24,245.8 430.53,-92.66 827.11,-300.48 1171.11,-686.97 561.16,-616.11 1166,-829.12 1812.94,-653.87z"/>
   <path class="fil25" d="M15062.24 13040.51c1.6,10.74 -5.8,20.77 -16.54,22.37 -10.74,1.61 -20.76,-5.8 -22.37,-16.53 -0.1,-0.76 -37.81,-264.46 -120.17,-421.69 -5,-9.58 -1.29,-21.44 8.3,-26.44 9.59,-5.01 21.44,-1.29 26.45,8.29 85.71,163.64 124.21,433.24 124.33,434z"/>
   <path class="fil25" d="M15369.08 12932.87c0.42,10.82 -8.01,19.95 -18.83,20.37 -10.82,0.42 -19.95,-8.02 -20.37,-18.83 -0.03,-0.83 -11.61,-290.73 73.97,-504.69 4.02,-10.05 15.47,-14.94 25.52,-10.92 10.05,4.02 14.94,15.47 10.92,25.52 -82.49,206.21 -71.23,487.75 -71.21,488.55z"/>
   <path class="fil25" d="M13019.8 14978.42c-8.48,-6.75 -9.9,-19.11 -3.15,-27.59 6.75,-8.49 19.11,-9.9 27.6,-3.15 742.05,588.85 1447.29,876.23 2116.94,872.72 668.96,-3.51 1303.68,-297.58 1905.31,-871.57 7.85,-7.46 20.29,-7.15 27.75,0.69 7.46,7.85 7.15,20.29 -0.7,27.75 -609.05,581.06 -1252.71,878.77 -1932.2,882.33 -678.84,3.57 -1392.29,-286.61 -2141.55,-881.18z"/>
   <path class="fil25" d="M12930.15 15021.76c-9.76,4.76 -21.54,0.69 -26.29,-9.07 -4.75,-9.76 -0.69,-21.54 9.07,-26.3 0.44,-0.21 157.54,-75.76 316.47,-109.46 10.61,-2.25 21.06,4.53 23.3,15.14 2.24,10.6 -4.53,21.05 -15.14,23.29 -154.14,32.7 -306.98,106.19 -307.41,106.4z"/>
   <path class="fil25" d="M17243.7 14985.35c10.53,2.54 17,13.15 14.45,23.68 -2.54,10.53 -13.15,17 -23.68,14.45 -0.52,-0.12 -184.2,-42.9 -288.92,-102.48 -9.42,-5.35 -12.72,-17.34 -7.37,-26.76 5.34,-9.42 17.33,-12.72 26.76,-7.38 99.74,56.75 278.26,98.37 278.76,98.49z"/>
   <path class="fil1" d="M11998.45 11465.2c-652.96,1644.88 -591.26,2877.88 -234.46,3571.84 431.52,839.29 857.75,578.6 1292.17,1403.39 -553.33,-521.08 -1680.76,-152.6 -2252.8,-1157.09 -393.36,-690.74 447.08,-2772.3 461.5,-3515.54l733.59 -302.6z"/>
   <path class="fil27" d="M12016.47 11472.92c-301.33,759.22 -449.99,1430.31 -487.41,2000.67 -43.32,660.11 62.3,1184.75 252.39,1554.46 215.05,418.27 428.98,560.53 643.24,702.98 215.27,143.13 430.94,286.53 648.84,700.25 5.04,9.59 1.36,21.48 -8.23,26.52 -7.7,4.05 -16.88,2.47 -22.81,-3.28 -219.43,-206.49 -533.85,-271.3 -867.28,-340 -500.64,-103.13 -1043.54,-215 -1388.92,-821.49 -257.23,-451.72 2.21,-1477.55 223,-2350.6 121.31,-479.64 230.89,-912.91 235.97,-1174.93 0.12,-8.07 5.13,-14.93 12.14,-17.82l733.59 -302.62c10.02,-4.12 21.49,0.66 25.6,10.68 2.08,5.06 1.88,10.51 -0.12,15.18zm-526.62 1998.2c36.98,-563.4 181.69,-1224.17 473.48,-1970.22l-679.19 280.17c-8.39,268.1 -116.86,696.97 -236.71,1170.89 -219.04,866.09 -476.4,1883.73 -227,2321.69 336.58,591.04 870.38,701.03 1362.61,802.44 300.52,61.92 585.85,120.73 805.22,282.33 -196.12,-335.9 -390.87,-465.4 -585.25,-594.64 -218.55,-145.32 -436.76,-290.41 -656.47,-717.74 -193.11,-375.61 -300.5,-907.28 -256.69,-1574.92z"/>
   <path class="fil1" d="M11132.06 11810.74c0,0 780.33,656.7 2147.83,332.21 1367.5,-324.49 2047.39,-1274.79 2047.39,-1274.79l-1761.53 -23.17 -2240.53 733.96 -193.16 231.79z"/>
   <path class="fil27" d="M11119.61 11825.88c-8.36,-6.88 -9.57,-19.24 -2.69,-27.6 6.88,-8.35 19.25,-9.56 27.6,-2.68 2.24,1.84 772.85,650.44 2130.84,328.21 1360.45,-322.8 2034.12,-1264.48 2036.08,-1267.18 6.36,-8.73 18.63,-10.66 27.36,-4.31 8.74,6.36 10.67,18.63 4.31,27.37 -1.98,2.74 -684.15,956.25 -2058.69,1282.4 -1377.01,326.74 -2162.52,-334.33 -2164.81,-336.21z"/>
   <path class="fil1" d="M18240.61 11744.26c0,0 656.14,1310.87 377.57,1969.33 -278.58,658.45 -942.02,911.47 -1018,1430.64 -75.98,519.18 189.94,797.74 658.45,962.36 468.51,164.61 810.41,-12.66 810.41,-12.66 0,0 -759.76,-303.91 -557.16,-747.1 202.6,-443.19 928.23,-667.17 940.88,-1477.57 12.66,-810.41 -519.3,-2160.44 -519.3,-2160.44l-92.35 -122.78 -600.5 158.22z"/>
   <path class="fil27" d="M18268.75 11757.15c83.3,172.62 628.82,1346.35 367.49,1964.05 -135.48,320.25 -359.72,544.47 -564.75,749.46 -217.68,217.66 -413.37,413.31 -451.86,676.42 -37.16,254.01 8.93,448.69 121.35,599.6 112.98,151.66 293.47,260.35 524.11,341.39 366.65,128.81 652.82,45.47 754.81,5.86 -158.84,-72.76 -707.43,-358.03 -525.86,-755.24 74.78,-163.56 217.41,-296.26 370.12,-438.32 264.99,-246.49 561.05,-521.92 569,-1031.35 12.3,-788.75 -493.39,-2090.19 -517.05,-2150.65l-82.73 -109.99 -564.63 148.77zm331.36 1948.83c273.25,-645.87 -366.81,-1932.37 -376.87,-1952.56 -0.69,-1.3 -1.23,-2.69 -1.62,-4.16 -2.75,-10.48 3.51,-21.23 13.99,-23.98l600.5 -158.23c7.5,-1.93 15.77,0.66 20.69,7.23l91.62 121.81c1.38,1.62 2.52,3.49 3.33,5.59 1.52,3.89 533.33,1353.5 520.61,2167.81 -8.21,526.36 -310.71,807.79 -581.45,1059.63 -149.81,139.37 -289.73,269.53 -361.19,425.86 -193.98,424.34 544.59,719.89 546.7,720.73 4.24,1.79 7.92,5.02 10.14,9.46 4.83,9.67 0.91,21.45 -8.76,26.29 -1.01,0.5 -349.25,181.03 -825.63,13.65 -237.84,-83.56 -424.6,-196.51 -542.7,-355.05 -118.68,-159.31 -167.54,-363.52 -128.74,-628.67 40.38,-276.05 240.43,-476.06 462.94,-698.55 202.55,-202.51 424.09,-424.03 556.44,-736.86z"/>
   <path class="fil1" d="M15226.84 10860.43c0,0 587.18,672.17 1552.93,1043.02 965.74,370.85 1630.17,193.15 1838.78,100.44 208.6,-92.71 424.92,-285.87 424.92,-285.87 0,0 -857.59,-417.21 -1529.74,-571.72 -672.16,-154.52 -1869.69,-285.87 -1869.69,-285.87l-417.2 0z"/>
   <path class="fil27" d="M15271.5 10880.12c130.29,138.29 679.58,684.14 1515.26,1005.04 375.64,144.25 705.37,205.02 979.96,220 426.17,23.28 718.6,-63.48 843.92,-119.18 165.93,-73.73 337.16,-212.31 397.28,-263.23 -150.03,-71.33 -897.9,-419.23 -1498.57,-557.32 -658.76,-151.42 -1820.6,-280.32 -1865.99,-285.31l-371.86 0zm1501.27 1041.62c-948.61,-364.26 -1532.24,-1016.24 -1559.52,-1047.07 -3.75,-3.58 -6.1,-8.64 -6.1,-14.24 0,-10.86 8.82,-19.68 19.69,-19.68l417.2 0 2.15 0.16c3.45,0.39 1198.61,131.48 1871.92,286.25 662.59,152.31 1501.5,557.48 1532.93,572.71 2.65,1.1 5.09,2.79 7.12,5.08 7.22,8.11 6.5,20.55 -1.61,27.76 -0.62,0.55 -218.39,195 -430.09,289.08 -128.63,57.17 -428.03,146.26 -861.74,122.58 -278.07,-15.19 -611.86,-76.68 -991.95,-222.63z"/>
   <path class="fil18" d="M19183.8 11589.78c27.42,108.46 50.93,218.15 70.8,328.65 -2330.14,-1196.66 -5909.83,-1196.56 -8240.33,0.66 17.42,-96.96 37.42,-193.34 60.66,-288.76 73.65,-302.46 176.1,-581.96 301.98,-839.6 2130.77,-1182.05 5384.87,-1181.67 7514.96,-0.5 120.24,246.27 219.31,512.31 291.93,799.55z"/>
   <path class="fil4" d="M21098.51 9231c0,0 306.29,-87.52 481.31,140.02 175.03,227.53 43.77,831.35 -236.27,910.12 -280.04,78.77 -586.33,-87.49 -586.33,-350.04 0,-262.54 341.29,-700.1 341.29,-700.1z"/>
   <path class="fil4" d="M20608.44 8880.95c0,0 315.04,-148.76 525.08,35.01 210.03,183.77 26.26,918.89 -201.28,1015.14 -227.53,96.26 -420.05,52.5 -533.82,-70.02 -113.77,-122.51 210.02,-980.13 210.02,-980.13z"/>
   <path class="fil4" d="M19803.33 9047.23c-8.74,-122.52 70.01,-560.08 385.05,-612.59 315.04,-52.51 586.35,245.05 560.09,595.09 -26.26,350.04 -157.54,700.1 -437.57,726.35 -280.03,26.24 -507.57,-708.85 -507.57,-708.85z"/>
   <path class="fil4" d="M19085.73 10141.12c0,0 8.77,-1006.39 341.31,-1207.66 332.54,-201.27 1032.64,43.76 1172.65,236.28 140.02,192.53 -367.55,350.05 -367.55,350.05 0,0 560.09,183.77 288.79,630.08 -271.29,446.32 -1435.2,-8.75 -1435.2,-8.75z"/>
   <path class="fil25" d="M20583.78 9181.27c-6.35,-8.79 -4.4,-21.08 4.39,-27.43 8.78,-6.36 21.07,-4.41 27.43,4.38 126.01,173.27 -196.22,314.23 -326.13,362.46 136.04,58.04 479.8,250.08 248.37,639.19 -70.96,119.31 -198.7,179.38 -350.56,202.04 -193.5,28.87 -426.91,-3.22 -629.64,-49.79 -10.56,-2.42 -17.17,-12.96 -14.76,-23.52 2.42,-10.56 12.96,-17.17 23.52,-14.76 198.8,45.67 427.17,77.21 615.19,49.17 140.72,-21 258.45,-75.54 322.44,-183.13 252.08,-423.83 -249.78,-592.36 -276.61,-601.02 -6.44,-1.6 -11.92,-6.43 -14.03,-13.22 -3.22,-10.36 2.55,-21.38 12.91,-24.6 1.37,-0.42 481.34,-149.46 357.48,-319.77z"/>
   <path class="fil25" d="M20721.62 8896.87c-2.42,-10.56 4.19,-21.1 14.75,-23.52 10.56,-2.42 21.1,4.2 23.52,14.76 0.27,1.16 96.29,406.82 55.52,620.12 -42.12,220.33 -206.31,276.19 -206.76,276.34 -10.27,3.47 -21.43,-2.04 -24.9,-12.31 -3.47,-10.27 2.03,-21.42 12.31,-24.9 0.4,-0.13 142.94,-48.61 180.77,-246.52 39.18,-204.94 -54.96,-602.83 -55.21,-603.97z"/>
   <path class="fil25" d="M21210.09 9270.79c0,-10.87 8.82,-19.69 19.68,-19.69 10.87,0 19.69,8.82 19.69,19.69 0,1.33 0.66,6.21 1.62,13.56 8.8,65.96 40.61,304.32 -69.52,470.92 -125.05,189.19 -315.09,208.54 -315.63,208.6 -10.77,1.18 -20.48,-6.6 -21.67,-17.37 -1.19,-10.77 6.6,-20.49 17.37,-21.67 0.49,-0.05 172.37,-17.53 287.19,-191.24 102.03,-154.35 71.74,-381.35 63.36,-444.18 -1.24,-9.44 -2.09,-15.7 -2.09,-18.62z"/>
   <path class="fil21" d="M14819 14756.98c0,0 42.51,382.47 402.3,473.12 359.78,90.66 597.75,-45.34 589.26,-147.32 -8.5,-101.99 -130.32,-186.97 -130.32,-186.97 0,0 -192.65,152.98 -515.61,87.82 -322.97,-65.16 -308.8,-147.33 -308.8,-147.33l-36.83 -79.32z"/>
   <path class="fil25" d="M15295.09 14436.65c-10.82,-0.29 -19.36,-9.32 -19.07,-20.14 0.29,-10.81 9.32,-19.36 20.14,-19.06 1.2,0.03 419.28,12.6 503.77,207.58 13.99,32.28 17.96,66.24 12.99,100.23l-0.13 0.77c-7.38,49.1 -33.4,98.19 -74.68,142.24 -40.45,43.16 -95.91,81.76 -162.99,110.82 -107.36,46.52 -244.89,68.75 -398.57,46.3 -205.84,-30.07 -300.4,-93.69 -339.73,-159.24 -41.15,-68.58 -22.64,-138.09 -5.74,-176.97 4.32,-9.92 15.9,-14.47 25.83,-10.14 9.92,4.32 14.46,15.9 10.14,25.83 -13.66,31.44 -28.8,87.38 3.44,141.13 34.07,56.77 120.01,112.47 311.75,140.49 146.06,21.33 276.19,0.46 377.36,-43.38 61.9,-26.81 112.91,-62.24 149.93,-101.75 35.83,-38.24 58.28,-80.08 64.41,-121.23l0.07 -0.57c3.94,-26.99 0.88,-53.77 -10.06,-79.01 -74.55,-172.05 -467.74,-183.88 -468.86,-183.9z"/>
  </g>
 </g>
</svg>
